<?xml version="1.0" encoding="UTF-8"?> <svg xmlns="http://www.w3.org/2000/svg" width="77.556" height="77.556" viewBox="0 0 77.556 77.556"><defs><style>.a{fill:none;fill-rule:evenodd;}.b{fill:#fea000;}.c{fill:#39455e;}</style></defs><path class="a" d="M0,0H77.556V77.556H0Z"></path><path class="b" d="M27.613,21.1H12.1v1.551a7.756,7.756,0,0,0,15.511,0ZM19.858,33.511A10.858,10.858,0,0,1,9,22.653V18H30.716v4.653A10.858,10.858,0,0,1,19.858,33.511Z" transform="translate(18.92 37.84)"></path><path class="b" d="M24.062,39.125A17.062,17.062,0,1,1,41.125,22.062,17.062,17.062,0,0,1,24.062,39.125Zm0-3.1A13.96,13.96,0,1,0,10.1,22.062,13.96,13.96,0,0,0,24.062,36.022Z" transform="translate(14.716 10.511)"></path><path class="c" d="M13.858,5.1A7.756,7.756,0,0,0,6.1,12.858V43.88a7.756,7.756,0,0,0,7.756,7.756H51.085A7.756,7.756,0,0,0,58.84,43.88V12.858A7.756,7.756,0,0,0,51.085,5.1Zm0-3.1H51.085A10.858,10.858,0,0,1,61.942,12.858V43.88A10.858,10.858,0,0,1,51.085,54.738H13.858A10.858,10.858,0,0,1,3,43.88V12.858A10.858,10.858,0,0,1,13.858,2Z" transform="translate(6.307 4.204)"></path><path class="c" d="M17.756,23.511a7.756,7.756,0,1,1,7.756-7.756A7.756,7.756,0,0,1,17.756,23.511Zm0-3.1A4.653,4.653,0,1,0,13.1,15.756,4.653,4.653,0,0,0,17.756,20.409Z" transform="translate(21.022 16.818)"></path></svg> 