<?xml version="1.0" encoding="UTF-8"?> <svg xmlns="http://www.w3.org/2000/svg" width="75" height="75" viewBox="0 0 75 75"><defs><style>.a{fill:none;fill-rule:evenodd;}.b{fill:#1a1f2f;}.c{fill:#fea000;}</style></defs><path class="a" d="M0,0H75V75H0Z"></path><path class="b" d="M32,31H57.5A1.5,1.5,0,0,1,59,32.5,28.5,28.5,0,1,1,30.5,4,1.5,1.5,0,0,1,32,5.5ZM5,32.5A25.5,25.5,0,0,0,55.957,34H30.5A1.5,1.5,0,0,1,29,32.5V7.043A25.5,25.5,0,0,0,5,32.5Z" transform="translate(4 8)"></path><path class="c" d="M41,27.5A1.5,1.5,0,0,1,39.5,29h-24A1.5,1.5,0,0,1,14,27.5V3.5A1.5,1.5,0,0,1,15.5,2,25.5,25.5,0,0,1,41,27.5ZM17,5.049V26H37.951A22.5,22.5,0,0,0,17,5.049Z" transform="translate(28 4)"></path></svg> 