<?xml version="1.0" encoding="UTF-8"?> <svg xmlns="http://www.w3.org/2000/svg" width="75" height="75" viewBox="0 0 75 75"><defs><style>.a{fill:none;fill-rule:evenodd;}.b{fill:#39455e;}.c{fill:#323fff;}</style></defs><path class="a" d="M0,0H75V75H0Z"></path><path class="b" d="M5,4.3,23,17.8v3.75L5,8.05ZM29,19.873l18-9v3.354l-18,9V19.873Z" transform="translate(10 8.6)"></path><path class="b" d="M14.5,18A1.5,1.5,0,0,0,13,19.5v15A1.5,1.5,0,0,0,14.5,36h6A1.5,1.5,0,0,0,22,34.5v-15A1.5,1.5,0,0,0,20.5,18Zm0-3h6A4.5,4.5,0,0,1,25,19.5v15A4.5,4.5,0,0,1,20.5,39h-6A4.5,4.5,0,0,1,10,34.5v-15A4.5,4.5,0,0,1,14.5,15Z" transform="translate(20 30)"></path><path class="b" d="M22.5,15A1.5,1.5,0,0,0,21,16.5v24A1.5,1.5,0,0,0,22.5,42h6A1.5,1.5,0,0,0,30,40.5v-24A1.5,1.5,0,0,0,28.5,15Zm0-3h6A4.5,4.5,0,0,1,33,16.5v24A4.5,4.5,0,0,1,28.5,45h-6A4.5,4.5,0,0,1,18,40.5v-24A4.5,4.5,0,0,1,22.5,12Z" transform="translate(36 24)"></path><path class="c" d="M56,17a3,3,0,1,0-3-3A3,3,0,0,0,56,17ZM32,20a6,6,0,1,1-6,6A6,6,0,0,1,32,20Zm0,3a3,3,0,1,0,3,3A3,3,0,0,0,32,23ZM56,8a6,6,0,1,1-6,6A6,6,0,0,1,56,8ZM8,2A6,6,0,1,1,2,8,6,6,0,0,1,8,2ZM8,5a3,3,0,1,0,3,3A3,3,0,0,0,8,5Z" transform="translate(4 4)"></path><path class="b" d="M6.5,13A1.5,1.5,0,0,0,5,14.5V44.376a1.5,1.5,0,0,0,1.5,1.5h6a1.5,1.5,0,0,0,1.5-1.5V14.5A1.5,1.5,0,0,0,12.5,13Zm0-3h6A4.5,4.5,0,0,1,17,14.5V44.376a4.5,4.5,0,0,1-4.5,4.5h-6a4.5,4.5,0,0,1-4.5-4.5V14.5A4.5,4.5,0,0,1,6.5,10Z" transform="translate(4 20)"></path></svg> 