<?xml version="1.0" encoding="UTF-8"?> <svg xmlns="http://www.w3.org/2000/svg" width="263.773" height="118.894" viewBox="0 0 263.773 118.894"><defs><style>.a,.b{fill:#fea000;}.b{stroke:#fea000;}</style></defs><g transform="matrix(0.978, -0.208, 0.208, 0.978, -2073.082, -2871.07)"><g transform="translate(1424.669 3249.241)"><path class="a" d="M14.452,30.517a1.255,1.255,0,0,0,.887.4,1.208,1.208,0,0,0,.932-.4,1.291,1.291,0,0,0,0-1.73L3.05,15.478,16.27,2.213a1.471,1.471,0,0,0,0-1.863,1.358,1.358,0,0,0-1.819,0L.433,14.546l-.044.044-.133.133a.97.97,0,0,0-.133.222,1.129,1.129,0,0,0-.089.311.616.616,0,0,0,0,.4.4.4,0,0,0,.044.222.163.163,0,0,0,.044.133.137.137,0,0,0,.044.089,1.176,1.176,0,0,0,.222.266l.044.044Zm25.42,0a1.277,1.277,0,0,0,.932.4,1.182,1.182,0,0,0,.887-.4L55.71,16.409l.044-.044c.044-.044.089-.044.089-.089a1.307,1.307,0,0,0-.089-1.686l-.044-.044L41.691.35a1.358,1.358,0,0,0-1.819,0,1.471,1.471,0,0,0,0,1.863l13.22,13.265L39.872,28.787A1.291,1.291,0,0,0,39.872,30.517Z" transform="translate(0 19.19) rotate(-20)"></path><path class="a" d="M.8,37.515h0a1.662,1.662,0,0,0,.539.054h0a1.261,1.261,0,0,0,1.186-.809l14.72-34.94h0A1.249,1.249,0,0,0,16.541.1h0a1.352,1.352,0,0,0-1.725.7L.1,35.736h0A1.416,1.416,0,0,0,.8,37.515Z" transform="translate(16.976 8.33) rotate(-20)"></path></g><path class="b" d="M0,38.8A1.277,1.277,0,0,0,1.255,40.05H8.738a.917.917,0,1,0,0-1.834H2.22V1.834H8.738A.949.949,0,0,0,9.654.917.949.949,0,0,0,8.738,0H1.255A1.277,1.277,0,0,0,0,1.255Z" transform="translate(1663.651 3369.289) rotate(42)"></path></g></svg> 