<?xml version="1.0" encoding="UTF-8"?> <svg xmlns="http://www.w3.org/2000/svg" width="283.544" height="82.473" viewBox="0 0 283.544 82.473"><defs><style>.a,.b,.c{fill:none;stroke:#fea000;}.a,.c{stroke-linecap:round;}.a{stroke-width:3px;}.b{stroke-linejoin:round;}.b,.c{stroke-width:2.5px;}</style></defs><g transform="translate(-1439.885 -3514.231)"><g transform="translate(6669 -5423)"><path class="a" d="M-5192.315,8969.152l6.678,15.51"></path><path class="a" d="M-5227,8965.06l34.035,37.912"></path><path class="a" d="M-5214.072,9002.972l21.542,14.648"></path></g><g transform="translate(-2208 51.144)"><path class="b" d="M3918.8,3465.227s17.1,5.937,9.278,23.989c-2.667,4.513-5.774,5.936-9.7,10.255a12.6,12.6,0,0,0-1.92,2.892,21.856,21.856,0,0,0-.534,4.224c-6.711-1.609-17.187-4.382-17.187-4.382s1.438-3.732,1.369-5.1-.274-3.047-2.157-8.457-2.993-19.481,10.873-23.726C3913.451,3463.619,3918.8,3465.227,3918.8,3465.227Z" transform="translate(-0.001 0)"></path><path class="c" d="M3896.495,3507.69l17.977,4.889" transform="translate(0 -0.117)"></path><path class="c" d="M3896.851,3512.894l12.657,3.535" transform="translate(0.996 0.866)"></path></g></g></svg> 