<?xml version="1.0" encoding="UTF-8"?> <svg xmlns="http://www.w3.org/2000/svg" width="256.949" height="90.486" viewBox="0 0 256.949 90.486"><defs><style>.a,.b{fill:none;stroke:#323fff;stroke-linejoin:round;stroke-width:2.5px;}.a{stroke-linecap:round;}</style></defs><g transform="translate(-587.931 -3323.229)"><path class="a" d="M-5171.056,9689.015l32.869,1.208s5.039,17.486-6.4,42.37c-.946-.012-11.571.262-20.986,0-5.126-.143-11.477-.613-13.583-.909,2.668-3.218,8.391-13.551,8.1-31.41C-5171.046,9688.546-5171.056,9689.015-5171.056,9689.015Z" transform="translate(5768.338 -6364.533)"></path><path class="b" d="M-4875.6,9730.11l36.751,1.217s-.407,28.744-8.889,42.88c-3.084,4.2-3.341,6-33.325,3.854-4.536-.351-4.646-.983-4.646-.983s8.039-6.471,9.264-31.64C-4876.105,9730.849-4875.6,9730.11-4875.6,9730.11Z" transform="translate(5682.474 -6366.47)"></path></g></svg> 