<?xml version="1.0" encoding="UTF-8"?> <svg xmlns="http://www.w3.org/2000/svg" width="24.001" height="28.64" viewBox="0 0 24.001 28.64"><defs><style>.a{fill:#323fff;}</style></defs><g transform="translate(-8 -3.2)"><path class="a" d="M17,2a12,12,0,0,1,8.4,20.573l-7.831,7.832a.8.8,0,0,1-1.132,0L8.589,22.56A12,12,0,0,1,17,2Zm0,1.6A10.4,10.4,0,0,0,9.715,21.424L17,28.709l7.272-7.273A10.4,10.4,0,0,0,17,3.6Zm0,4.8A5.6,5.6,0,1,1,11.4,14,5.6,5.6,0,0,1,17,8.4ZM17,10a4,4,0,1,0,4,4A4,4,0,0,0,17,10Z" transform="translate(3 1.2)"></path></g></svg> 