<?xml version="1.0" encoding="UTF-8"?> <svg xmlns="http://www.w3.org/2000/svg" width="77" height="77" viewBox="0 0 77 77"><defs><style>.a{fill:none;fill-rule:evenodd;}.b{fill:#fea000;}.c{fill:#1a1f2f;}</style></defs><path class="a" d="M0,0H77V77H0Z"></path><path class="b" d="M25.24,13.24c5.9,0,10.78,4.068,10.78,9.24s-4.882,9.24-10.78,9.24h0V28.64c4.308,0,7.7-2.826,7.7-6.16s-3.392-6.16-7.7-6.16h0ZM17.54,4a1.54,1.54,0,0,1,1.54,1.54h0V17.86a1.54,1.54,0,0,1-3.08,0h0V5.54A1.54,1.54,0,0,1,17.54,4Z" transform="translate(33.28 8.32)"></path><path class="c" d="M20.48,14.406l-8.526.92A7.7,7.7,0,0,0,5.08,22.982v3.165A7.7,7.7,0,0,0,11.944,33.8l8.536.947Zm3.08-.332V35.089l6.282.7,22.51,7.182A1.54,1.54,0,0,0,54.36,41.5V7.621a1.54,1.54,0,0,0-2.01-1.467l-22.506,7.21-.3.065ZM23.829,38.2,26.5,53.006a4.619,4.619,0,0,1-4.547,5.439H20.226a4.62,4.62,0,0,1-4.3-2.939L8.283,35.946A10.783,10.783,0,0,1,2,26.146V22.982a10.78,10.78,0,0,1,9.624-10.718l17.43-1.88L51.411,3.222a4.62,4.62,0,0,1,6.029,4.4V41.5a4.62,4.62,0,0,1-6.024,4.4L29.207,38.784ZM11.963,36.9l6.828,17.484a1.54,1.54,0,0,0,1.434.98h1.723a1.54,1.54,0,0,0,1.516-1.813l-2.828-15.7L11.963,36.9Z" transform="translate(4.16 6.24)"></path></svg> 