<?xml version="1.0" encoding="UTF-8"?> <svg xmlns="http://www.w3.org/2000/svg" width="27.208" height="27.207" viewBox="0 0 27.208 27.207"><defs><style>.a{fill:#323fff;}</style></defs><g transform="translate(-17.488 -15.042)"><g transform="translate(16.488 16.488)"><path class="a" d="M26.438,41.652a11.617,11.617,0,0,0,16.384,0l.346-.346a1.808,1.808,0,0,0,0-2.554l-4.314-4.314a1.806,1.806,0,0,0-2.554,0L34.39,36.347a1.161,1.161,0,0,1-1.594,0l-7.621-7.621a1.129,1.129,0,0,1,0-1.594l1.909-1.909a1.808,1.808,0,0,0,0-2.554l-4.314-4.314a1.808,1.808,0,0,0-2.554,0l-.346.346a11.616,11.616,0,0,0,0,16.384ZM21.04,19.87l.346-.346a.15.15,0,0,1,.212,0l4.314,4.314a.15.15,0,0,1,0,.212L24,25.959A2.789,2.789,0,0,0,24,29.9l7.621,7.621a2.789,2.789,0,0,0,3.938,0l1.909-1.909a.15.15,0,0,1,.212,0L42,39.923a.15.15,0,0,1,0,.212l-.346.346a9.96,9.96,0,0,1-14.041,0L21.04,33.912a9.96,9.96,0,0,1,0-14.041Z" transform="translate(-15.488 -19.271)"></path></g></g></svg> 