<?xml version="1.0" encoding="UTF-8"?> <svg xmlns="http://www.w3.org/2000/svg" width="27.04" height="32.517" viewBox="0 0 27.04 32.517"><defs><style>.a{fill:#323fff;}</style></defs><path class="a" d="M6.864-12.375a11.348,11.348,0,0,0,8.282,3.416,11.241,11.241,0,0,0,8.25-3.416,11.241,11.241,0,0,0,3.416-8.25,11.241,11.241,0,0,0-3.416-8.25,11.241,11.241,0,0,0-8.25-3.416,11.348,11.348,0,0,0-8.282,3.416,11.188,11.188,0,0,0-3.448,8.25A11.188,11.188,0,0,0,6.864-12.375Zm1-15.533a9.93,9.93,0,0,1,7.283-3.029,9.93,9.93,0,0,1,7.283,3.029,9.93,9.93,0,0,1,3.029,7.283,9.93,9.93,0,0,1-3.029,7.283,9.93,9.93,0,0,1-7.283,3.029,9.93,9.93,0,0,1-7.283-3.029,9.93,9.93,0,0,1-3.029-7.283A9.93,9.93,0,0,1,7.863-27.908ZM25.846-9.926A14.5,14.5,0,0,0,30.261-20.3,14.7,14.7,0,0,0,26.3-30.809l.516-.516a.582.582,0,0,0,0-.967.63.63,0,0,0-.967,0l-2,1.934a.582.582,0,0,0,0,.967,1.1,1.1,0,0,0,.516.193.7.7,0,0,0,.516-.193l.451-.451A13.518,13.518,0,0,1,28.843-20.3a13.3,13.3,0,0,1-3.964,9.41,13.46,13.46,0,0,1-9.442,4A13.089,13.089,0,0,1,5.93-10.441l.451-.451a.63.63,0,0,0,0-.967.582.582,0,0,0-.967,0L3.48-9.926a.582.582,0,0,0,0,.967.618.618,0,0,0,.451.193.7.7,0,0,0,.516-.193l.516-.516a14.7,14.7,0,0,0,8.766,3.932v1.482A13.931,13.931,0,0,0,6.51-1.225L4.834,0H25.395L23.783-1.225A14.588,14.588,0,0,0,16.5-4.061V-5.543A15.211,15.211,0,0,0,25.846-9.926ZM9.346-1.354a12.319,12.319,0,0,1,5.8-1.418,12.835,12.835,0,0,1,5.8,1.418Z" transform="translate(-3.223 32.517)"></path></svg> 