<?xml version="1.0" encoding="UTF-8"?> <svg xmlns="http://www.w3.org/2000/svg" width="22.043" height="33" viewBox="0 0 22.043 33"><defs><style>.a{fill:#323fff;}</style></defs><path class="a" d="M21.656-27.006,26.1-33H6.9l4.447,5.994q-5.865,4-5.865,9.152,0,2.514,2.224,7.058a69.669,69.669,0,0,0,3.706,6.832q1.482,2.288,2.449,3.642L14.051,0h4.9l.193-.322q.967-1.354,2.449-3.642A69.67,69.67,0,0,0,25.3-10.8q2.224-4.544,2.224-7.058Q27.521-23.01,21.656-27.006Zm1.74-4.641L20.3-27.521H12.7L9.6-31.646ZM18.176-1.354h-.967V-15.146H15.791V-1.354h-.967q-1.289-1.869-2.739-4.189a64.173,64.173,0,0,1-3.319-6.252A15.679,15.679,0,0,1,6.9-17.854a7.291,7.291,0,0,1,1.321-4.061,11.8,11.8,0,0,1,2.417-2.836q1.1-.838,1.934-1.354h7.863q.838.516,1.934,1.354a11.8,11.8,0,0,1,2.417,2.836A7.291,7.291,0,0,1,26.1-17.854a15.679,15.679,0,0,1-1.869,6.059,64.173,64.173,0,0,1-3.319,6.252Q19.465-3.223,18.176-1.354Zm.741-14.792a3.292,3.292,0,0,0,1-2.417,3.292,3.292,0,0,0-1-2.417,3.292,3.292,0,0,0-2.417-1,3.292,3.292,0,0,0-2.417,1,3.292,3.292,0,0,0-1,2.417,3.292,3.292,0,0,0,1,2.417,3.292,3.292,0,0,0,2.417,1A3.292,3.292,0,0,0,18.917-16.146Zm-.935-.935a2.008,2.008,0,0,1-1.482.58,2.008,2.008,0,0,1-1.482-.58,2.008,2.008,0,0,1-.58-1.482,2.008,2.008,0,0,1,.58-1.482,2.008,2.008,0,0,1,1.482-.58,2.008,2.008,0,0,1,1.482.58,2.008,2.008,0,0,1,.58,1.482A2.008,2.008,0,0,1,17.982-17.08Z" transform="translate(-5.479 33)"></path></svg> 