<?xml version="1.0" encoding="UTF-8"?> <svg xmlns="http://www.w3.org/2000/svg" width="36.259" height="24.22" viewBox="0 0 36.259 24.22"><defs><style>.a{fill:#323fff;}</style></defs><path class="a" d="M33.214-27.521H3.045a2.939,2.939,0,0,0-2.16.885A2.939,2.939,0,0,0,0-24.476v18.13a2.939,2.939,0,0,0,.885,2.16,2.939,2.939,0,0,0,2.16.885H33.214a2.939,2.939,0,0,0,2.16-.885,2.939,2.939,0,0,0,.885-2.16v-18.13a2.939,2.939,0,0,0-.885-2.16A2.939,2.939,0,0,0,33.214-27.521ZM34.772-6.347a1.386,1.386,0,0,1-.46,1.062,1.563,1.563,0,0,1-1.1.425H3.045a1.563,1.563,0,0,1-1.1-.425,1.386,1.386,0,0,1-.46-1.062v-18.13a1.386,1.386,0,0,1,.46-1.062,1.563,1.563,0,0,1,1.1-.425H33.214a1.563,1.563,0,0,1,1.1.425,1.386,1.386,0,0,1,.46,1.062Zm-3.187-14.73q-.425-.708-.991-.283L18.13-13.287,5.666-21.36q-.567-.425-.991.283-.425.567.212.991L18.13-11.516l13.243-8.569Q32.01-20.51,31.585-21.077ZM10.906-13.783,4.107-9.25Q3.47-8.9,3.9-8.188a.7.7,0,0,0,.637.354,1.087,1.087,0,0,0,.425-.142l6.8-4.532q.637-.354.212-1.062Q11.614-14.208,10.906-13.783Zm14.447,0q-.708-.425-1.062.212-.425.708.212,1.062l6.8,4.532a1.087,1.087,0,0,0,.425.142.7.7,0,0,0,.637-.354q.425-.708-.212-1.062Z" transform="translate(0 27.521)"></path></svg> 