<?xml version="1.0" encoding="UTF-8"?> <svg xmlns="http://www.w3.org/2000/svg" width="29.004" height="27.747" viewBox="0 0 29.004 27.747"><defs><style>.a{fill:#323fff;}</style></defs><path class="a" d="M29.133-23.01q-.129-.193-.354-.58t-.354-.58a2.478,2.478,0,0,0,1.289-2.256,2.53,2.53,0,0,0-.806-1.837,2.53,2.53,0,0,0-1.837-.806,2.459,2.459,0,0,0-2.256,1.354,12.193,12.193,0,0,0-1.16-.709,3.744,3.744,0,0,1,3.416-1.934,3.806,3.806,0,0,1,2.8,1.128A3.806,3.806,0,0,1,31-26.426,3.867,3.867,0,0,1,29.133-23.01Zm.58,7.154A12.889,12.889,0,0,1,26.3-6.961L29.52-3.738a.564.564,0,0,1,0,.9.564.564,0,0,1-.9,0L25.33-6.059A12.658,12.658,0,0,1,16.5-2.643,12.658,12.658,0,0,1,7.67-6.059L4.383-2.836a.564.564,0,0,1-.9,0,.564.564,0,0,1,0-.9L6.7-6.961a12.889,12.889,0,0,1-3.416-8.895A12.733,12.733,0,0,1,7.154-25.2,12.733,12.733,0,0,1,16.5-29.068,12.733,12.733,0,0,1,25.846-25.2,12.733,12.733,0,0,1,29.713-15.855Zm-4.834-8.379a11.422,11.422,0,0,0-8.379-3.48,11.422,11.422,0,0,0-8.379,3.48,11.422,11.422,0,0,0-3.48,8.379,11.5,11.5,0,0,0,3.48,8.443A11.422,11.422,0,0,0,16.5-3.932a11.422,11.422,0,0,0,8.379-3.48,11.5,11.5,0,0,0,3.48-8.443A11.422,11.422,0,0,0,24.879-24.234ZM17.145-13.277v5.994q0,.709-.645.709t-.645-.709v-5.994a2.479,2.479,0,0,1-2-2.578,2.383,2.383,0,0,1,.387-1.354l-2.836-2.836a.564.564,0,0,1,0-.9.564.564,0,0,1,.9,0l2.836,2.836A3.116,3.116,0,0,1,16.5-18.5a2.547,2.547,0,0,1,1.869.773,2.547,2.547,0,0,1,.773,1.869A2.479,2.479,0,0,1,17.145-13.277Zm.258-3.48a1.237,1.237,0,0,0-.9-.387,1.237,1.237,0,0,0-.9.387,1.237,1.237,0,0,0-.387.9,1.312,1.312,0,0,0,.387.967,1.237,1.237,0,0,0,.9.387,1.237,1.237,0,0,0,.9-.387,1.312,1.312,0,0,0,.387-.967A1.237,1.237,0,0,0,17.4-16.758ZM5.93-29.068a2.53,2.53,0,0,0-1.837.806,2.53,2.53,0,0,0-.806,1.837A2.478,2.478,0,0,0,4.576-24.17q-.129.193-.354.58t-.354.58A3.867,3.867,0,0,1,2-26.426a3.806,3.806,0,0,1,1.128-2.8,3.806,3.806,0,0,1,2.8-1.128,3.744,3.744,0,0,1,3.416,1.934,12.193,12.193,0,0,0-1.16.709A2.459,2.459,0,0,0,5.93-29.068Z" transform="translate(-1.998 30.357)"></path></svg> 