<?xml version="1.0" encoding="UTF-8"?> <svg xmlns="http://www.w3.org/2000/svg" width="75" height="75" viewBox="0 0 75 75"><defs><style>.a{fill:none;fill-rule:evenodd;}.b{fill:#39455e;}.c{fill:#fea000;}</style></defs><path class="a" d="M0,0H75V75H0Z"></path><path class="b" d="M12.5,5A7.5,7.5,0,0,0,5,12.5v42A7.5,7.5,0,0,0,12.5,62h42A7.5,7.5,0,0,0,62,54.5v-42A7.5,7.5,0,0,0,54.5,5Zm0-3h42A10.5,10.5,0,0,1,65,12.5v42A10.5,10.5,0,0,1,54.5,65h-42A10.5,10.5,0,0,1,2,54.5v-42A10.5,10.5,0,0,1,12.5,2Z" transform="translate(4 4)"></path><path class="c" d="M12,39V37.5a1.5,1.5,0,1,1,3,0V39H43.5a1.5,1.5,0,1,1,0,3H15v1.5a1.5,1.5,0,1,1-3,0V42H7.5a1.5,1.5,0,1,1,0-3ZM36,24V22.5a1.5,1.5,0,0,1,3,0V24h4.5a1.5,1.5,0,1,1,0,3H39v1.5a1.5,1.5,0,1,1-3,0V27H7.5a1.5,1.5,0,0,1,0-3ZM12,9V7.5a1.5,1.5,0,1,1,3,0V9H43.5a1.5,1.5,0,1,1,0,3H15v1.5a1.5,1.5,0,0,1-3,0V12H7.5a1.5,1.5,0,1,1,0-3Z" transform="translate(12 12)"></path></svg> 