<?xml version="1.0" encoding="UTF-8"?> <svg xmlns="http://www.w3.org/2000/svg" width="75" height="75" viewBox="0 0 75 75"><defs><style>.a{fill:none;fill-rule:evenodd;}.b{fill:#fea000;}.c{fill:#1a1f2f;}</style></defs><path class="a" d="M0,0H75V75H0Z"></path><path class="b" d="M29.121,54l3.44,3.439a1.5,1.5,0,1,1-2.122,2.122l-6-6a1.5,1.5,0,0,1,0-2.122l6-6a1.5,1.5,0,1,1,2.122,2.122L29.121,51H45v3ZM54,33.879l3.439-3.439a1.5,1.5,0,0,1,2.122,2.122l-6,6a1.5,1.5,0,0,1-2.122,0l-6-6a1.5,1.5,0,0,1,2.122-2.122L51,33.879V18h3V33.879ZM33.879,9,30.439,5.561a1.5,1.5,0,0,1,2.122-2.121l6,6a1.5,1.5,0,0,1,0,2.121l-6,6a1.5,1.5,0,0,1-2.122-2.121L33.879,12H18V9ZM9,29.121l-3.439,3.44a1.5,1.5,0,1,1-2.121-2.122l6-6a1.5,1.5,0,0,1,2.121,0l6,6a1.5,1.5,0,1,1-2.121,2.122L12,29.121V45H9Z" transform="translate(6 6)"></path><path class="c" d="M6.5,44h12A4.5,4.5,0,0,1,23,48.5v12A4.5,4.5,0,0,1,18.5,65H6.5A4.5,4.5,0,0,1,2,60.5v-12A4.5,4.5,0,0,1,6.5,44ZM23,6.5v12A4.5,4.5,0,0,1,18.5,23H6.5A4.5,4.5,0,0,1,2,18.5V6.5A4.5,4.5,0,0,1,6.5,2h12A4.5,4.5,0,0,1,23,6.5ZM60.5,23h-12A4.5,4.5,0,0,1,44,18.5V6.5A4.5,4.5,0,0,1,48.5,2h12A4.5,4.5,0,0,1,65,6.5v12A4.5,4.5,0,0,1,60.5,23ZM44,60.5v-12A4.5,4.5,0,0,1,48.5,44h12A4.5,4.5,0,0,1,65,48.5v12A4.5,4.5,0,0,1,60.5,65h-12A4.5,4.5,0,0,1,44,60.5ZM6.5,47A1.5,1.5,0,0,0,5,48.5v12A1.5,1.5,0,0,0,6.5,62h12A1.5,1.5,0,0,0,20,60.5v-12A1.5,1.5,0,0,0,18.5,47ZM20,6.5A1.5,1.5,0,0,0,18.5,5H6.5A1.5,1.5,0,0,0,5,6.5v12A1.5,1.5,0,0,0,6.5,20h12A1.5,1.5,0,0,0,20,18.5ZM60.5,20A1.5,1.5,0,0,0,62,18.5V6.5A1.5,1.5,0,0,0,60.5,5h-12A1.5,1.5,0,0,0,47,6.5v12A1.5,1.5,0,0,0,48.5,20ZM47,60.5A1.5,1.5,0,0,0,48.5,62h12A1.5,1.5,0,0,0,62,60.5v-12A1.5,1.5,0,0,0,60.5,47h-12A1.5,1.5,0,0,0,47,48.5Z" transform="translate(4 4)"></path></svg> 