
<svg version="1.1" xmlns="http://www.w3.org/2000/svg" xmlns:xlink="http://www.w3.org/1999/xlink" x="0px" y="0px"
	 viewBox="0 0 201.9 41" style="enable-background:new 0 0 201.9 41;" xml:space="preserve">
<style type="text/css">
	.st0{fill:none;stroke:#000000;stroke-linecap:round;stroke-miterlimit:10;}
	.st1{fill:none;stroke:#000000;stroke-linecap:round;stroke-miterlimit:10;stroke-dasharray:3.5937,3.5937;}
	.st2{fill:none;stroke:#000000;stroke-linecap:round;stroke-miterlimit:10;stroke-dasharray:3.9609,3.9609;}
</style>
<g>
	<g>
		<line class="st0" x1="181.2" y1="0.5" x2="182.3" y2="1.6"/>
		<line class="st1" x1="184.3" y1="3.6" x2="199.1" y2="18.4"/>
		<polyline class="st0" points="200.1,19.4 201.2,20.5 200.1,21.6 		"/>
		<line class="st1" x1="198.1" y1="23.6" x2="183.3" y2="38.4"/>
		<line class="st0" x1="182.3" y1="39.4" x2="181.2" y2="40.5"/>
	</g>
</g>
<g>
	<g>
		<path class="st0" d="M0.5,20.5c0,0,0.7-0.1,2-0.3"/>
		<path class="st2" d="M6.4,19.6c18.7-2.6,76-9.7,87.3,0c14.2,12.1-4,22.3-10.7,15.2c-7.1-7.5,1.5-22.5,17.5-20.7
			C115,15.8,160,25.4,196.6,21"/>
		<path class="st0" d="M198.5,20.8c0.7-0.1,1.3-0.2,2-0.3"/>
	</g>
</g>
</svg>
