<svg version="1.1" xmlns="http://www.w3.org/2000/svg" xmlns:xlink="http://www.w3.org/1999/xlink" x="0px" y="0px"
	 viewBox="0 0 201.2 41" style="enable-background:new 0 0 201.2 41;" xml:space="preserve">

<g>
	<g>
		<line stroke="#798184" stroke-width="2" stroke-miterlimit="10" x1="180.5" y1="0.5" x2="181.6" y2="1.6"/>
		<line stroke="#798184" stroke-width="2" stroke-miterlimit="10" x1="183.6" y1="3.6" x2="198.4" y2="18.4"/>
		<polyline stroke="#798184" stroke-width="2" stroke-miterlimit="10" points="199.4,19.4 200.5,20.5 199.4,21.6 		"/>
		<line stroke="#798184" stroke-width="2" stroke-miterlimit="10" x1="197.4" y1="23.6" x2="182.6" y2="38.4"/>
		<line stroke="#798184" stroke-width="2" stroke-miterlimit="10" x1="181.6" y1="39.4" x2="180.5" y2="40.5"/>
	</g>
</g>
<g>
	<g>
		<path stroke="#798184" stroke-width="2" stroke-miterlimit="10" d="M0.5,20.5c0,0,0.7,0.1,2,0.3"/>
		<path stroke="#798184" stroke-width="2" stroke-miterlimit="10" d="M6.4,21.4c18.7,2.6,76,9.7,87.3,0C107.9,9.3,89.8-0.9,83,6.2c-7.1,7.5,1.5,22.5,17.5,20.7
			C115,25.2,160,15.6,196.6,20"/>
		<path stroke="#798184" stroke-width="2" stroke-miterlimit="10" d="M198.5,20.2c0.7,0.1,1.3,0.2,2,0.3"/>
	</g>
</g>
</svg>
